<mxfile host="app.diagrams.net" agent="Mozilla/5.0 (Windows NT 10.0; Win64; x64; rv:135.0) Gecko/20100101 Firefox/135.0" version="26.0.14">
  <diagram name="Page-1" id="rWWFO53XOidTDZBJvEjc">
    <mxGraphModel dx="744" dy="534" grid="1" gridSize="10" guides="1" tooltips="1" connect="1" arrows="1" fold="1" page="1" pageScale="1" pageWidth="850" pageHeight="1100" math="0" shadow="0">
      <root>
        <mxCell id="0" />
        <mxCell id="1" parent="0" />
        <mxCell id="fqGQaMcgLuoZdAPFxkhI-1" value="Users" style="shape=actor;whiteSpace=wrap;html=1;labelPosition=center;verticalLabelPosition=bottom;align=center;verticalAlign=top;" vertex="1" parent="1">
          <mxGeometry y="293" width="40" height="60" as="geometry" />
        </mxCell>
        <mxCell id="fqGQaMcgLuoZdAPFxkhI-7" value="AWS Cloud" style="points=[[0,0],[0.25,0],[0.5,0],[0.75,0],[1,0],[1,0.25],[1,0.5],[1,0.75],[1,1],[0.75,1],[0.5,1],[0.25,1],[0,1],[0,0.75],[0,0.5],[0,0.25]];outlineConnect=0;gradientColor=none;html=1;whiteSpace=wrap;fontSize=12;fontStyle=0;container=1;pointerEvents=0;collapsible=0;recursiveResize=0;shape=mxgraph.aws4.group;grIcon=mxgraph.aws4.group_aws_cloud_alt;strokeColor=#232F3E;fillColor=none;verticalAlign=top;align=left;spacingLeft=30;fontColor=#232F3E;dashed=0;" vertex="1" parent="1">
          <mxGeometry x="100" y="125" width="720" height="405" as="geometry" />
        </mxCell>
        <mxCell id="fqGQaMcgLuoZdAPFxkhI-11" value="Region" style="points=[[0,0],[0.25,0],[0.5,0],[0.75,0],[1,0],[1,0.25],[1,0.5],[1,0.75],[1,1],[0.75,1],[0.5,1],[0.25,1],[0,1],[0,0.75],[0,0.5],[0,0.25]];outlineConnect=0;gradientColor=none;html=1;whiteSpace=wrap;fontSize=12;fontStyle=0;container=1;pointerEvents=0;collapsible=0;recursiveResize=0;shape=mxgraph.aws4.group;grIcon=mxgraph.aws4.group_region;strokeColor=#00A4A6;fillColor=none;verticalAlign=top;align=left;spacingLeft=30;fontColor=#147EBA;dashed=1;" vertex="1" parent="fqGQaMcgLuoZdAPFxkhI-7">
          <mxGeometry x="160" y="75" width="550" height="325" as="geometry" />
        </mxCell>
        <mxCell id="fqGQaMcgLuoZdAPFxkhI-12" value="&lt;div&gt;Static Web Hosting&amp;nbsp;&lt;/div&gt;&lt;div&gt;(S3 Bucket)&lt;/div&gt;" style="sketch=0;points=[[0,0,0],[0.25,0,0],[0.5,0,0],[0.75,0,0],[1,0,0],[0,1,0],[0.25,1,0],[0.5,1,0],[0.75,1,0],[1,1,0],[0,0.25,0],[0,0.5,0],[0,0.75,0],[1,0.25,0],[1,0.5,0],[1,0.75,0]];outlineConnect=0;fontColor=#232F3E;fillColor=#7AA116;strokeColor=#ffffff;dashed=0;verticalLabelPosition=top;verticalAlign=bottom;align=center;html=1;fontSize=12;fontStyle=0;aspect=fixed;shape=mxgraph.aws4.resourceIcon;resIcon=mxgraph.aws4.s3;labelPosition=center;" vertex="1" parent="fqGQaMcgLuoZdAPFxkhI-11">
          <mxGeometry x="30" y="80" width="78" height="78" as="geometry" />
        </mxCell>
        <mxCell id="fqGQaMcgLuoZdAPFxkhI-2" value="API Gateway" style="sketch=0;points=[[0,0,0],[0.25,0,0],[0.5,0,0],[0.75,0,0],[1,0,0],[0,1,0],[0.25,1,0],[0.5,1,0],[0.75,1,0],[1,1,0],[0,0.25,0],[0,0.5,0],[0,0.75,0],[1,0.25,0],[1,0.5,0],[1,0.75,0]];outlineConnect=0;fontColor=#232F3E;fillColor=#E7157B;strokeColor=#ffffff;dashed=0;verticalLabelPosition=top;verticalAlign=bottom;align=center;html=1;fontSize=12;fontStyle=0;aspect=fixed;shape=mxgraph.aws4.resourceIcon;resIcon=mxgraph.aws4.api_gateway;labelPosition=center;" vertex="1" parent="fqGQaMcgLuoZdAPFxkhI-11">
          <mxGeometry x="150" y="80" width="78" height="78" as="geometry" />
        </mxCell>
        <mxCell id="fqGQaMcgLuoZdAPFxkhI-3" value="&lt;div&gt;Upload Function&lt;/div&gt;&lt;div&gt;(Lambda)&lt;/div&gt;" style="sketch=0;points=[[0,0,0],[0.25,0,0],[0.5,0,0],[0.75,0,0],[1,0,0],[0,1,0],[0.25,1,0],[0.5,1,0],[0.75,1,0],[1,1,0],[0,0.25,0],[0,0.5,0],[0,0.75,0],[1,0.25,0],[1,0.5,0],[1,0.75,0]];outlineConnect=0;fontColor=#232F3E;fillColor=#ED7100;strokeColor=#ffffff;dashed=0;verticalLabelPosition=top;verticalAlign=bottom;align=center;html=1;fontSize=12;fontStyle=0;aspect=fixed;shape=mxgraph.aws4.resourceIcon;resIcon=mxgraph.aws4.lambda;labelPosition=center;" vertex="1" parent="fqGQaMcgLuoZdAPFxkhI-11">
          <mxGeometry x="290" y="80" width="78" height="78" as="geometry" />
        </mxCell>
        <mxCell id="fqGQaMcgLuoZdAPFxkhI-14" style="edgeStyle=orthogonalEdgeStyle;rounded=0;orthogonalLoop=1;jettySize=auto;html=1;entryX=0;entryY=0.5;entryDx=0;entryDy=0;entryPerimeter=0;startArrow=none;startFill=0;" edge="1" parent="fqGQaMcgLuoZdAPFxkhI-11" source="fqGQaMcgLuoZdAPFxkhI-12" target="fqGQaMcgLuoZdAPFxkhI-2">
          <mxGeometry relative="1" as="geometry" />
        </mxCell>
        <mxCell id="fqGQaMcgLuoZdAPFxkhI-15" style="edgeStyle=orthogonalEdgeStyle;rounded=0;orthogonalLoop=1;jettySize=auto;html=1;entryX=0;entryY=0.5;entryDx=0;entryDy=0;entryPerimeter=0;" edge="1" parent="fqGQaMcgLuoZdAPFxkhI-11" source="fqGQaMcgLuoZdAPFxkhI-2" target="fqGQaMcgLuoZdAPFxkhI-3">
          <mxGeometry relative="1" as="geometry" />
        </mxCell>
        <mxCell id="fqGQaMcgLuoZdAPFxkhI-22" value="&lt;div&gt;Stored Images&lt;/div&gt;&lt;div&gt;(S3 Bucket)&lt;/div&gt;" style="sketch=0;points=[[0,0,0],[0.25,0,0],[0.5,0,0],[0.75,0,0],[1,0,0],[0,1,0],[0.25,1,0],[0.5,1,0],[0.75,1,0],[1,1,0],[0,0.25,0],[0,0.5,0],[0,0.75,0],[1,0.25,0],[1,0.5,0],[1,0.75,0]];outlineConnect=0;fontColor=#232F3E;fillColor=#7AA116;strokeColor=#ffffff;dashed=0;verticalLabelPosition=top;verticalAlign=bottom;align=center;html=1;fontSize=12;fontStyle=0;aspect=fixed;shape=mxgraph.aws4.resourceIcon;resIcon=mxgraph.aws4.s3;labelPosition=center;" vertex="1" parent="fqGQaMcgLuoZdAPFxkhI-11">
          <mxGeometry x="450" y="80" width="78" height="78" as="geometry" />
        </mxCell>
        <mxCell id="fqGQaMcgLuoZdAPFxkhI-25" style="edgeStyle=orthogonalEdgeStyle;rounded=0;orthogonalLoop=1;jettySize=auto;html=1;entryX=0;entryY=0.5;entryDx=0;entryDy=0;entryPerimeter=0;" edge="1" parent="fqGQaMcgLuoZdAPFxkhI-11" source="fqGQaMcgLuoZdAPFxkhI-3" target="fqGQaMcgLuoZdAPFxkhI-22">
          <mxGeometry relative="1" as="geometry" />
        </mxCell>
        <mxCell id="fqGQaMcgLuoZdAPFxkhI-34" style="edgeStyle=orthogonalEdgeStyle;rounded=0;orthogonalLoop=1;jettySize=auto;html=1;" edge="1" parent="fqGQaMcgLuoZdAPFxkhI-11" source="fqGQaMcgLuoZdAPFxkhI-27" target="fqGQaMcgLuoZdAPFxkhI-33">
          <mxGeometry relative="1" as="geometry" />
        </mxCell>
        <mxCell id="fqGQaMcgLuoZdAPFxkhI-27" value="&lt;div&gt;Deblurring Algorithm&lt;/div&gt;&lt;div&gt;(Lambda)&lt;/div&gt;" style="sketch=0;points=[[0,0,0],[0.25,0,0],[0.5,0,0],[0.75,0,0],[1,0,0],[0,1,0],[0.25,1,0],[0.5,1,0],[0.75,1,0],[1,1,0],[0,0.25,0],[0,0.5,0],[0,0.75,0],[1,0.25,0],[1,0.5,0],[1,0.75,0]];outlineConnect=0;fontColor=#232F3E;fillColor=#ED7100;strokeColor=#ffffff;dashed=0;verticalLabelPosition=bottom;verticalAlign=top;align=center;html=1;fontSize=12;fontStyle=0;aspect=fixed;shape=mxgraph.aws4.resourceIcon;resIcon=mxgraph.aws4.lambda;" vertex="1" parent="fqGQaMcgLuoZdAPFxkhI-11">
          <mxGeometry x="450" y="210" width="78" height="78" as="geometry" />
        </mxCell>
        <mxCell id="fqGQaMcgLuoZdAPFxkhI-32" style="edgeStyle=orthogonalEdgeStyle;rounded=0;orthogonalLoop=1;jettySize=auto;html=1;entryX=0.5;entryY=0;entryDx=0;entryDy=0;entryPerimeter=0;" edge="1" parent="fqGQaMcgLuoZdAPFxkhI-11" source="fqGQaMcgLuoZdAPFxkhI-22" target="fqGQaMcgLuoZdAPFxkhI-27">
          <mxGeometry relative="1" as="geometry" />
        </mxCell>
        <mxCell id="fqGQaMcgLuoZdAPFxkhI-35" style="edgeStyle=orthogonalEdgeStyle;rounded=0;orthogonalLoop=1;jettySize=auto;html=1;" edge="1" parent="fqGQaMcgLuoZdAPFxkhI-11" source="fqGQaMcgLuoZdAPFxkhI-33" target="fqGQaMcgLuoZdAPFxkhI-2">
          <mxGeometry relative="1" as="geometry" />
        </mxCell>
        <mxCell id="fqGQaMcgLuoZdAPFxkhI-33" value="&lt;div&gt;Processed Images&lt;/div&gt;&lt;div&gt;(S3 Bucket)&lt;/div&gt;" style="sketch=0;points=[[0,0,0],[0.25,0,0],[0.5,0,0],[0.75,0,0],[1,0,0],[0,1,0],[0.25,1,0],[0.5,1,0],[0.75,1,0],[1,1,0],[0,0.25,0],[0,0.5,0],[0,0.75,0],[1,0.25,0],[1,0.5,0],[1,0.75,0]];outlineConnect=0;fontColor=#232F3E;fillColor=#7AA116;strokeColor=#ffffff;dashed=0;verticalLabelPosition=bottom;verticalAlign=top;align=center;html=1;fontSize=12;fontStyle=0;aspect=fixed;shape=mxgraph.aws4.resourceIcon;resIcon=mxgraph.aws4.s3;labelPosition=center;" vertex="1" parent="fqGQaMcgLuoZdAPFxkhI-11">
          <mxGeometry x="290" y="210" width="78" height="78" as="geometry" />
        </mxCell>
        <mxCell id="fqGQaMcgLuoZdAPFxkhI-40" style="edgeStyle=orthogonalEdgeStyle;rounded=0;orthogonalLoop=1;jettySize=auto;html=1;exitX=0;exitY=0.75;exitDx=0;exitDy=0;exitPerimeter=0;entryX=1;entryY=0.75;entryDx=0;entryDy=0;entryPerimeter=0;" edge="1" parent="fqGQaMcgLuoZdAPFxkhI-11" source="fqGQaMcgLuoZdAPFxkhI-2" target="fqGQaMcgLuoZdAPFxkhI-12">
          <mxGeometry relative="1" as="geometry" />
        </mxCell>
        <mxCell id="fqGQaMcgLuoZdAPFxkhI-17" value="&lt;div&gt;Route 53&lt;/div&gt;" style="sketch=0;points=[[0,0,0],[0.25,0,0],[0.5,0,0],[0.75,0,0],[1,0,0],[0,1,0],[0.25,1,0],[0.5,1,0],[0.75,1,0],[1,1,0],[0,0.25,0],[0,0.5,0],[0,0.75,0],[1,0.25,0],[1,0.5,0],[1,0.75,0]];outlineConnect=0;fontColor=#232F3E;fillColor=#8C4FFF;strokeColor=#ffffff;dashed=0;verticalLabelPosition=top;verticalAlign=bottom;align=center;html=1;fontSize=12;fontStyle=0;aspect=fixed;shape=mxgraph.aws4.resourceIcon;resIcon=mxgraph.aws4.route_53;labelPosition=center;" vertex="1" parent="fqGQaMcgLuoZdAPFxkhI-7">
          <mxGeometry x="40" y="45" width="78" height="78" as="geometry" />
        </mxCell>
        <mxCell id="fqGQaMcgLuoZdAPFxkhI-29" value="&lt;div&gt;Cloudfront&lt;/div&gt;&lt;div&gt;&lt;br&gt;&lt;/div&gt;" style="sketch=0;points=[[0,0,0],[0.25,0,0],[0.5,0,0],[0.75,0,0],[1,0,0],[0,1,0],[0.25,1,0],[0.5,1,0],[0.75,1,0],[1,1,0],[0,0.25,0],[0,0.5,0],[0,0.75,0],[1,0.25,0],[1,0.5,0],[1,0.75,0]];outlineConnect=0;fontColor=#232F3E;fillColor=#8C4FFF;strokeColor=#ffffff;dashed=0;verticalLabelPosition=bottom;verticalAlign=top;align=center;html=1;fontSize=12;fontStyle=0;aspect=fixed;shape=mxgraph.aws4.resourceIcon;resIcon=mxgraph.aws4.cloudfront;" vertex="1" parent="fqGQaMcgLuoZdAPFxkhI-7">
          <mxGeometry x="40" y="155" width="78" height="78" as="geometry" />
        </mxCell>
        <mxCell id="fqGQaMcgLuoZdAPFxkhI-31" style="edgeStyle=orthogonalEdgeStyle;rounded=0;orthogonalLoop=1;jettySize=auto;html=1;entryX=0;entryY=0.5;entryDx=0;entryDy=0;entryPerimeter=0;startArrow=none;startFill=0;" edge="1" parent="fqGQaMcgLuoZdAPFxkhI-7" source="fqGQaMcgLuoZdAPFxkhI-29" target="fqGQaMcgLuoZdAPFxkhI-12">
          <mxGeometry relative="1" as="geometry" />
        </mxCell>
        <mxCell id="fqGQaMcgLuoZdAPFxkhI-38" style="edgeStyle=orthogonalEdgeStyle;rounded=0;orthogonalLoop=1;jettySize=auto;html=1;entryX=0.5;entryY=0;entryDx=0;entryDy=0;entryPerimeter=0;" edge="1" parent="fqGQaMcgLuoZdAPFxkhI-7" source="fqGQaMcgLuoZdAPFxkhI-17" target="fqGQaMcgLuoZdAPFxkhI-29">
          <mxGeometry relative="1" as="geometry" />
        </mxCell>
        <mxCell id="fqGQaMcgLuoZdAPFxkhI-41" style="edgeStyle=orthogonalEdgeStyle;rounded=0;orthogonalLoop=1;jettySize=auto;html=1;exitX=0;exitY=0.75;exitDx=0;exitDy=0;exitPerimeter=0;entryX=1;entryY=0.75;entryDx=0;entryDy=0;entryPerimeter=0;" edge="1" parent="fqGQaMcgLuoZdAPFxkhI-7" source="fqGQaMcgLuoZdAPFxkhI-12" target="fqGQaMcgLuoZdAPFxkhI-29">
          <mxGeometry relative="1" as="geometry" />
        </mxCell>
        <mxCell id="fqGQaMcgLuoZdAPFxkhI-20" style="edgeStyle=orthogonalEdgeStyle;rounded=0;orthogonalLoop=1;jettySize=auto;html=1;entryX=0;entryY=0.5;entryDx=0;entryDy=0;entryPerimeter=0;endArrow=classic;endFill=1;startArrow=none;startFill=0;" edge="1" parent="1" source="fqGQaMcgLuoZdAPFxkhI-1" target="fqGQaMcgLuoZdAPFxkhI-17">
          <mxGeometry relative="1" as="geometry" />
        </mxCell>
        <mxCell id="fqGQaMcgLuoZdAPFxkhI-42" style="edgeStyle=orthogonalEdgeStyle;rounded=0;orthogonalLoop=1;jettySize=auto;html=1;exitX=0;exitY=0.75;exitDx=0;exitDy=0;exitPerimeter=0;entryX=1;entryY=0.75;entryDx=0;entryDy=0;" edge="1" parent="1" source="fqGQaMcgLuoZdAPFxkhI-29" target="fqGQaMcgLuoZdAPFxkhI-1">
          <mxGeometry relative="1" as="geometry" />
        </mxCell>
        <mxCell id="fqGQaMcgLuoZdAPFxkhI-43" style="edgeStyle=orthogonalEdgeStyle;rounded=0;orthogonalLoop=1;jettySize=auto;html=1;exitX=0.5;exitY=1;exitDx=0;exitDy=0;" edge="1" parent="1" source="fqGQaMcgLuoZdAPFxkhI-1" target="fqGQaMcgLuoZdAPFxkhI-1">
          <mxGeometry relative="1" as="geometry" />
        </mxCell>
      </root>
    </mxGraphModel>
  </diagram>
</mxfile>
